<svg xmlns="http://www.w3.org/2000/svg" width="34" height="28" fill="none" viewBox="0 0 34 28">
  <path fill="#fefefe" d="M14.774 23.83c1.016 0 1.878-.777 1.878-2.188V7.187c0-1.412-.856-2.187-1.874-2.187-.516 0-.949.152-1.459.45l-12 7.053C.432 13.024 0 13.628 0 14.406c0 .785.438 1.404 1.319 1.921l12 7.052c.498.299.939.45 1.455.45Zm16.593 0c1.018 0 1.878-.777 1.878-2.188V7.187c0-1.412-.856-2.187-1.871-2.187-.519 0-.95.152-1.462.45l-12 7.053c-.887.521-1.319 1.125-1.319 1.903 0 .785.44 1.404 1.319 1.921l12 7.052c.498.299.941.45 1.455.45Z"/>
</svg>
