<svg width="14" height="6" viewBox="0 0 14 6" fill="none" xmlns="http://www.w3.org/2000/svg">
<path d="M6.93946 0.185547C6.0918 0.185547 5.27539 0.248047 4.49024 0.373047C3.70899 0.494141 3.00196 0.681641 2.36914 0.935547C1.73633 1.18945 1.22266 1.51367 0.828127 1.9082C0.558596 2.17773 0.357424 2.47656 0.224612 2.80469C0.0917992 3.12891 0.0351586 3.48828 0.0546898 3.88281C0.0664086 4.12109 0.107424 4.3418 0.177737 4.54492C0.251955 4.74805 0.359377 4.91797 0.500002 5.05469C0.605471 5.16016 0.726565 5.24023 0.863284 5.29492C1.00391 5.3457 1.15821 5.35742 1.32617 5.33008L3.5 4.96094C3.82031 4.90625 4.05469 4.80469 4.20313 4.65625C4.30078 4.5625 4.36719 4.44531 4.40235 4.30469C4.4375 4.16406 4.45508 4.00195 4.45508 3.81836V3.22656C4.45508 3.14844 4.48828 3.07422 4.55469 3.00391C4.58203 2.96875 4.61524 2.94336 4.6543 2.92773C4.69727 2.9082 4.73438 2.89453 4.76563 2.88672C4.96485 2.83984 5.25586 2.79883 5.63867 2.76367C6.02539 2.72461 6.45899 2.70508 6.93946 2.70508C7.41992 2.70508 7.85156 2.72266 8.23438 2.75781C8.61719 2.78906 8.91016 2.83398 9.11328 2.89258C9.14453 2.90039 9.17774 2.91406 9.21289 2.93359C9.25196 2.94922 9.28711 2.97266 9.31836 3.00391C9.37696 3.06641 9.40821 3.13867 9.41211 3.2207L9.41797 3.81836C9.42188 4.00195 9.44141 4.16406 9.47656 4.30469C9.51172 4.44531 9.57617 4.5625 9.66992 4.65625C9.74414 4.73047 9.83985 4.79297 9.95703 4.84375C10.0742 4.89453 10.2148 4.93359 10.3789 4.96094L12.5234 5.32422C12.6953 5.35547 12.8535 5.34375 12.998 5.28906C13.1465 5.23047 13.2773 5.14648 13.3906 5.03711C13.6719 4.76367 13.8184 4.37695 13.8301 3.87695C13.8379 3.48242 13.7695 3.12305 13.625 2.79883C13.4844 2.4707 13.2813 2.17383 13.0156 1.9082C12.6211 1.50977 12.1094 1.18359 11.4805 0.929688C10.8516 0.675781 10.1484 0.488281 9.3711 0.367188C8.59375 0.246094 7.78321 0.185547 6.93946 0.185547Z" fill="white"/>
</svg>
