<svg width="12" height="12" viewBox="0 0 12 12" fill="none" xmlns="http://www.w3.org/2000/svg">
<path d="M3.32422 8.42383C3.88672 8.98633 4.48047 9.49414 5.10547 9.94727C5.73047 10.4004 6.35547 10.7598 6.98047 11.0254C7.60547 11.291 8.19727 11.4238 8.75586 11.4238C9.13477 11.4238 9.48828 11.3555 9.81641 11.2188C10.1445 11.082 10.4414 10.8672 10.707 10.5742C10.8633 10.4023 10.9863 10.2168 11.0762 10.0176C11.166 9.82227 11.2109 9.625 11.2109 9.42578C11.2109 9.27734 11.1816 9.13672 11.123 9.00391C11.0645 8.86719 10.9648 8.75 10.8242 8.65234L9.02539 7.375C8.88867 7.28125 8.76172 7.21094 8.64453 7.16406C8.52734 7.11719 8.41602 7.09375 8.31055 7.09375C8.17773 7.09375 8.04883 7.13086 7.92383 7.20508C7.79883 7.27539 7.66992 7.37695 7.53711 7.50977L7.12109 7.91992C7.0625 7.98242 6.98828 8.01367 6.89844 8.01367C6.85156 8.01367 6.80664 8.00586 6.76367 7.99023C6.72461 7.97461 6.69141 7.96094 6.66406 7.94922C6.48047 7.85156 6.24609 7.68359 5.96094 7.44531C5.67578 7.20312 5.38867 6.9375 5.09961 6.64844C4.81445 6.35938 4.55078 6.07227 4.30859 5.78711C4.06641 5.50195 3.89844 5.26953 3.80469 5.08984C3.78906 5.05859 3.77344 5.02344 3.75781 4.98438C3.74609 4.94141 3.74023 4.89844 3.74023 4.85547C3.74023 4.76953 3.76953 4.69727 3.82812 4.63867L4.24414 4.21094C4.37305 4.07812 4.47461 3.94922 4.54883 3.82422C4.62305 3.69922 4.66016 3.57031 4.66016 3.4375C4.66016 3.33203 4.63477 3.2207 4.58398 3.10352C4.53711 2.98633 4.46484 2.85938 4.36719 2.72266L3.10742 0.947266C3.00586 0.806641 2.88477 0.705078 2.74414 0.642578C2.60352 0.576172 2.45508 0.542969 2.29883 0.542969C1.89648 0.542969 1.51953 0.712891 1.16797 1.05273C0.882812 1.32617 0.673828 1.62891 0.541016 1.96094C0.412109 2.28906 0.347656 2.64062 0.347656 3.01562C0.347656 3.57812 0.478516 4.16992 0.740234 4.79102C1.00195 5.4082 1.35742 6.02734 1.80664 6.64844C2.25586 7.26953 2.76172 7.86133 3.32422 8.42383Z" fill="white"/>
</svg>
